<mxfile host="65bd71144e">
    <diagram id="gMOyLGP2sj8Hus9oxY61" name="Page-1">
        <mxGraphModel dx="754" dy="420" grid="1" gridSize="10" guides="1" tooltips="1" connect="1" arrows="1" fold="1" page="1" pageScale="1" pageWidth="850" pageHeight="1100" math="0" shadow="0">
            <root>
                <mxCell id="0"/>
                <mxCell id="1" parent="0"/>
                <mxCell id="2" value="AST Root" style="whiteSpace=wrap;html=1;" parent="1" vertex="1">
                    <mxGeometry x="320" y="40" width="120" height="60" as="geometry"/>
                </mxCell>
                <mxCell id="4" value="Instruction 0&lt;span style=&quot;color: rgba(0, 0, 0, 0); font-family: monospace; font-size: 0px; text-align: start;&quot;&gt;%3CmxGraphModel%3E%3Croot%3E%3CmxCell%20id%3D%220%22%2F%3E%3CmxCell%20id%3D%221%22%20parent%3D%220%22%2F%3E%3CmxCell%20id%3D%222%22%20value%3D%22AST%20Root%22%20style%3D%22whiteSpace%3Dwrap%3Bhtml%3D1%3B%22%20vertex%3D%221%22%20parent%3D%221%22%3E%3CmxGeometry%20x%3D%22290%22%20y%3D%2240%22%20width%3D%22120%22%20height%3D%2260%22%20as%3D%22geometry%22%2F%3E%3C%2FmxCell%3E%3C%2Froot%3E%3C%2FmxGraphModel%3E&lt;/span&gt;" style="whiteSpace=wrap;html=1;" parent="1" vertex="1">
                    <mxGeometry x="210" y="120" width="75" height="40" as="geometry"/>
                </mxCell>
                <mxCell id="5" value="Instruction 1" style="whiteSpace=wrap;html=1;" parent="1" vertex="1">
                    <mxGeometry x="300" y="120" width="75" height="40" as="geometry"/>
                </mxCell>
                <mxCell id="7" value="......." style="whiteSpace=wrap;html=1;" parent="1" vertex="1">
                    <mxGeometry x="387.5" y="120" width="75" height="40" as="geometry"/>
                </mxCell>
                <mxCell id="8" value="Instruction N" style="whiteSpace=wrap;html=1;" parent="1" vertex="1">
                    <mxGeometry x="480" y="120" width="75" height="40" as="geometry"/>
                </mxCell>
                <mxCell id="9" value="" style="edgeStyle=none;orthogonalLoop=1;jettySize=auto;html=1;exitX=0;exitY=1;exitDx=0;exitDy=0;entryX=0.5;entryY=0;entryDx=0;entryDy=0;" parent="1" source="2" target="4" edge="1">
                    <mxGeometry width="80" relative="1" as="geometry">
                        <mxPoint x="390" y="210" as="sourcePoint"/>
                        <mxPoint x="150" y="140" as="targetPoint"/>
                        <Array as="points"/>
                    </mxGeometry>
                </mxCell>
                <mxCell id="10" value="" style="edgeStyle=none;orthogonalLoop=1;jettySize=auto;html=1;exitX=0.25;exitY=1;exitDx=0;exitDy=0;entryX=0.5;entryY=0;entryDx=0;entryDy=0;" parent="1" source="2" target="5" edge="1">
                    <mxGeometry width="80" relative="1" as="geometry">
                        <mxPoint x="330" y="110" as="sourcePoint"/>
                        <mxPoint x="257.5" y="130" as="targetPoint"/>
                        <Array as="points"/>
                    </mxGeometry>
                </mxCell>
                <mxCell id="11" value="" style="edgeStyle=none;orthogonalLoop=1;jettySize=auto;html=1;exitX=0.75;exitY=1;exitDx=0;exitDy=0;entryX=0.5;entryY=0;entryDx=0;entryDy=0;" parent="1" source="2" target="7" edge="1">
                    <mxGeometry width="80" relative="1" as="geometry">
                        <mxPoint x="360" y="110" as="sourcePoint"/>
                        <mxPoint x="347.5" y="130" as="targetPoint"/>
                        <Array as="points"/>
                    </mxGeometry>
                </mxCell>
                <mxCell id="12" value="" style="edgeStyle=none;orthogonalLoop=1;jettySize=auto;html=1;exitX=1;exitY=1;exitDx=0;exitDy=0;entryX=0.5;entryY=0;entryDx=0;entryDy=0;" parent="1" source="2" target="8" edge="1">
                    <mxGeometry width="80" relative="1" as="geometry">
                        <mxPoint x="370" y="120" as="sourcePoint"/>
                        <mxPoint x="357.5" y="140" as="targetPoint"/>
                        <Array as="points"/>
                    </mxGeometry>
                </mxCell>
                <mxCell id="13" value="&lt;div style=&quot;text-align: center;&quot;&gt;&lt;u style=&quot;background-color: initial;&quot;&gt;Instruction Types&lt;/u&gt;&lt;/div&gt;&lt;div style=&quot;&quot;&gt;&lt;ol&gt;&lt;li&gt;Declaration&lt;/li&gt;&lt;li&gt;Assignment&lt;/li&gt;&lt;li&gt;While Loop&lt;/li&gt;&lt;li&gt;For Loop&lt;/li&gt;&lt;li&gt;If Statement&lt;/li&gt;&lt;/ol&gt;&lt;/div&gt;&lt;div style=&quot;color: rgb(212, 212, 212); background-color: rgb(30, 30, 30); font-family: Consolas, &amp;quot;Courier New&amp;quot;, monospace; font-size: 14px; line-height: 19px;&quot;&gt;&lt;div&gt;&amp;nbsp; &amp;nbsp;&lt;/div&gt;&lt;/div&gt;" style="whiteSpace=wrap;html=1;align=left;" parent="1" vertex="1">
                    <mxGeometry x="610" y="40" width="120" height="290" as="geometry"/>
                </mxCell>
                <mxCell id="15" value="Assignment" style="whiteSpace=wrap;html=1;" parent="1" vertex="1">
                    <mxGeometry x="80" y="200" width="120" height="60" as="geometry"/>
                </mxCell>
                <mxCell id="16" value="Symbol Node" style="whiteSpace=wrap;html=1;" parent="1" vertex="1">
                    <mxGeometry x="40" y="280" width="75" height="40" as="geometry"/>
                </mxCell>
                <mxCell id="17" value="Expression Node" style="whiteSpace=wrap;html=1;" parent="1" vertex="1">
                    <mxGeometry x="160" y="280" width="75" height="40" as="geometry"/>
                </mxCell>
                <mxCell id="18" value="" style="edgeStyle=none;orthogonalLoop=1;jettySize=auto;html=1;entryX=0.5;entryY=0;entryDx=0;entryDy=0;exitX=0.25;exitY=1;exitDx=0;exitDy=0;" parent="1" source="15" target="16" edge="1">
                    <mxGeometry width="80" relative="1" as="geometry">
                        <mxPoint x="390" y="190" as="sourcePoint"/>
                        <mxPoint x="470" y="190" as="targetPoint"/>
                        <Array as="points"/>
                    </mxGeometry>
                </mxCell>
                <mxCell id="19" value="" style="edgeStyle=none;orthogonalLoop=1;jettySize=auto;html=1;entryX=0.5;entryY=0;entryDx=0;entryDy=0;exitX=0.75;exitY=1;exitDx=0;exitDy=0;" parent="1" source="15" target="17" edge="1">
                    <mxGeometry width="80" relative="1" as="geometry">
                        <mxPoint x="120" y="270" as="sourcePoint"/>
                        <mxPoint x="87.5" y="290" as="targetPoint"/>
                        <Array as="points"/>
                    </mxGeometry>
                </mxCell>
                <mxCell id="20" value="a = 5+6-b;" style="text;strokeColor=none;align=center;fillColor=none;html=1;verticalAlign=middle;whiteSpace=wrap;rounded=0;" parent="1" vertex="1">
                    <mxGeometry x="110" y="170" width="60" height="30" as="geometry"/>
                </mxCell>
                <mxCell id="21" value="a" style="text;strokeColor=none;align=center;fillColor=none;html=1;verticalAlign=middle;whiteSpace=wrap;rounded=0;" parent="1" vertex="1">
                    <mxGeometry x="47.5" y="320" width="60" height="30" as="geometry"/>
                </mxCell>
                <mxCell id="22" value="5+6-b" style="text;strokeColor=none;align=center;fillColor=none;html=1;verticalAlign=middle;whiteSpace=wrap;rounded=0;" parent="1" vertex="1">
                    <mxGeometry x="167.5" y="320" width="60" height="30" as="geometry"/>
                </mxCell>
                <mxCell id="23" value="Declaration" style="whiteSpace=wrap;html=1;" parent="1" vertex="1">
                    <mxGeometry x="345" y="200" width="120" height="60" as="geometry"/>
                </mxCell>
                <mxCell id="24" value="Declaration Type" style="whiteSpace=wrap;html=1;" parent="1" vertex="1">
                    <mxGeometry x="312.5" y="280" width="75" height="40" as="geometry"/>
                </mxCell>
                <mxCell id="25" value="Assignment Node" style="whiteSpace=wrap;html=1;" parent="1" vertex="1">
                    <mxGeometry x="425" y="280" width="75" height="40" as="geometry"/>
                </mxCell>
                <mxCell id="26" value="" style="edgeStyle=none;orthogonalLoop=1;jettySize=auto;html=1;entryX=0.5;entryY=0;entryDx=0;entryDy=0;exitX=0.25;exitY=1;exitDx=0;exitDy=0;" parent="1" source="23" target="24" edge="1">
                    <mxGeometry width="80" relative="1" as="geometry">
                        <mxPoint x="390" y="250" as="sourcePoint"/>
                        <mxPoint x="470" y="250" as="targetPoint"/>
                        <Array as="points"/>
                    </mxGeometry>
                </mxCell>
                <mxCell id="27" value="" style="edgeStyle=none;orthogonalLoop=1;jettySize=auto;html=1;entryX=0.5;entryY=0;entryDx=0;entryDy=0;exitX=0.75;exitY=1;exitDx=0;exitDy=0;" parent="1" source="23" target="25" edge="1">
                    <mxGeometry width="80" relative="1" as="geometry">
                        <mxPoint x="385" y="270" as="sourcePoint"/>
                        <mxPoint x="367.5" y="290" as="targetPoint"/>
                        <Array as="points"/>
                    </mxGeometry>
                </mxCell>
                <mxCell id="28" value="int a = 5+b/5;" style="text;strokeColor=none;align=center;fillColor=none;html=1;verticalAlign=middle;whiteSpace=wrap;rounded=0;" parent="1" vertex="1">
                    <mxGeometry x="367.5" y="170" width="75" height="30" as="geometry"/>
                </mxCell>
                <mxCell id="29" value="int&lt;span style=&quot;color: rgba(0, 0, 0, 0); font-family: monospace; font-size: 0px; text-align: start;&quot;&gt;%3CmxGraphModel%3E%3Croot%3E%3CmxCell%20id%3D%220%22%2F%3E%3CmxCell%20id%3D%221%22%20parent%3D%220%22%2F%3E%3CmxCell%20id%3D%222%22%20value%3D%22int%20a%20%3D%205%2Bb%2F5%3B%22%20style%3D%22text%3BstrokeColor%3Dnone%3Balign%3Dcenter%3BfillColor%3Dnone%3Bhtml%3D1%3BverticalAlign%3Dmiddle%3BwhiteSpace%3Dwrap%3Brounded%3D0%3B%22%20vertex%3D%221%22%20parent%3D%221%22%3E%3CmxGeometry%20x%3D%22367.5%22%20y%3D%22170%22%20width%3D%2275%22%20height%3D%2230%22%20as%3D%22geometry%22%2F%3E%3C%2FmxCell%3E%3C%2Froot%3E%3C%2FmxGraphModel%3E&lt;/span&gt;" style="text;strokeColor=none;align=center;fillColor=none;html=1;verticalAlign=middle;whiteSpace=wrap;rounded=0;" parent="1" vertex="1">
                    <mxGeometry x="312.5" y="320" width="75" height="30" as="geometry"/>
                </mxCell>
                <mxCell id="30" value="a = 5+b/5" style="text;strokeColor=none;align=center;fillColor=none;html=1;verticalAlign=middle;whiteSpace=wrap;rounded=0;" parent="1" vertex="1">
                    <mxGeometry x="425" y="320" width="75" height="30" as="geometry"/>
                </mxCell>
                <mxCell id="38" value="While Loop" style="whiteSpace=wrap;html=1;" parent="1" vertex="1">
                    <mxGeometry x="72.5" y="410" width="120" height="60" as="geometry"/>
                </mxCell>
                <mxCell id="39" value="Condition Expression" style="whiteSpace=wrap;html=1;" parent="1" vertex="1">
                    <mxGeometry x="32.5" y="490" width="75" height="40" as="geometry"/>
                </mxCell>
                <mxCell id="40" value="Inside Lines" style="whiteSpace=wrap;html=1;" parent="1" vertex="1">
                    <mxGeometry x="152.5" y="490" width="75" height="40" as="geometry"/>
                </mxCell>
                <mxCell id="41" value="" style="edgeStyle=none;orthogonalLoop=1;jettySize=auto;html=1;entryX=0.5;entryY=0;entryDx=0;entryDy=0;exitX=0.25;exitY=1;exitDx=0;exitDy=0;" parent="1" source="38" target="39" edge="1">
                    <mxGeometry width="80" relative="1" as="geometry">
                        <mxPoint x="382.5" y="400" as="sourcePoint"/>
                        <mxPoint x="462.5" y="400" as="targetPoint"/>
                        <Array as="points"/>
                    </mxGeometry>
                </mxCell>
                <mxCell id="42" value="" style="edgeStyle=none;orthogonalLoop=1;jettySize=auto;html=1;entryX=0.5;entryY=0;entryDx=0;entryDy=0;exitX=0.75;exitY=1;exitDx=0;exitDy=0;" parent="1" source="38" target="40" edge="1">
                    <mxGeometry width="80" relative="1" as="geometry">
                        <mxPoint x="112.5" y="480" as="sourcePoint"/>
                        <mxPoint x="80" y="500" as="targetPoint"/>
                        <Array as="points"/>
                    </mxGeometry>
                </mxCell>
                <mxCell id="46" value="Instruction 1" style="whiteSpace=wrap;html=1;" parent="1" vertex="1">
                    <mxGeometry x="67.5" y="550" width="75" height="40" as="geometry"/>
                </mxCell>
                <mxCell id="47" value="......." style="whiteSpace=wrap;html=1;" parent="1" vertex="1">
                    <mxGeometry x="152.5" y="550" width="75" height="40" as="geometry"/>
                </mxCell>
                <mxCell id="48" value="Instruction N" style="whiteSpace=wrap;html=1;" parent="1" vertex="1">
                    <mxGeometry x="237.5" y="550" width="75" height="40" as="geometry"/>
                </mxCell>
                <mxCell id="49" value="" style="edgeStyle=none;orthogonalLoop=1;jettySize=auto;html=1;entryX=0.5;entryY=0;entryDx=0;entryDy=0;exitX=0.25;exitY=1;exitDx=0;exitDy=0;" parent="1" source="40" target="46" edge="1">
                    <mxGeometry width="80" relative="1" as="geometry">
                        <mxPoint x="390" y="510" as="sourcePoint"/>
                        <mxPoint x="470" y="510" as="targetPoint"/>
                        <Array as="points"/>
                    </mxGeometry>
                </mxCell>
                <mxCell id="50" value="" style="edgeStyle=none;orthogonalLoop=1;jettySize=auto;html=1;entryX=0.5;entryY=0;entryDx=0;entryDy=0;exitX=0.5;exitY=1;exitDx=0;exitDy=0;" parent="1" source="40" target="47" edge="1">
                    <mxGeometry width="80" relative="1" as="geometry">
                        <mxPoint x="181.25" y="540" as="sourcePoint"/>
                        <mxPoint x="115" y="560" as="targetPoint"/>
                        <Array as="points"/>
                    </mxGeometry>
                </mxCell>
                <mxCell id="51" value="" style="edgeStyle=none;orthogonalLoop=1;jettySize=auto;html=1;entryX=0.5;entryY=0;entryDx=0;entryDy=0;exitX=0.75;exitY=1;exitDx=0;exitDy=0;" parent="1" source="40" target="48" edge="1">
                    <mxGeometry width="80" relative="1" as="geometry">
                        <mxPoint x="227.25" y="605" as="sourcePoint"/>
                        <mxPoint x="161" y="625" as="targetPoint"/>
                        <Array as="points"/>
                    </mxGeometry>
                </mxCell>
                <mxCell id="52" value="&lt;div style=&quot;text-align: left;&quot;&gt;&lt;span style=&quot;background-color: initial;&quot;&gt;while (a&amp;lt;b){&lt;/span&gt;&lt;/div&gt;&lt;div style=&quot;text-align: left;&quot;&gt;a = 5;&lt;/div&gt;&lt;div style=&quot;text-align: left;&quot;&gt;&lt;span style=&quot;background-color: initial;&quot;&gt;}&lt;/span&gt;&lt;/div&gt;" style="text;strokeColor=none;align=center;fillColor=none;html=1;verticalAlign=middle;whiteSpace=wrap;rounded=0;" parent="1" vertex="1">
                    <mxGeometry x="90" y="370" width="100" height="30" as="geometry"/>
                </mxCell>
                <mxCell id="53" value="a&amp;lt;b" style="text;strokeColor=none;align=center;fillColor=none;html=1;verticalAlign=middle;whiteSpace=wrap;rounded=0;" parent="1" vertex="1">
                    <mxGeometry y="530" width="60" height="30" as="geometry"/>
                </mxCell>
                <mxCell id="54" value="a = 5;" style="text;strokeColor=none;align=center;fillColor=none;html=1;verticalAlign=middle;whiteSpace=wrap;rounded=0;" parent="1" vertex="1">
                    <mxGeometry x="75" y="590" width="60" height="30" as="geometry"/>
                </mxCell>
                <mxCell id="55" value="For Loop&lt;br&gt;(STILL WORKING)" style="whiteSpace=wrap;html=1;" parent="1" vertex="1">
                    <mxGeometry x="532.5" y="440" width="120" height="60" as="geometry"/>
                </mxCell>
                <mxCell id="56" value="NOT SURE" style="whiteSpace=wrap;html=1;" parent="1" vertex="1">
                    <mxGeometry x="420" y="520" width="75" height="40" as="geometry"/>
                </mxCell>
                <mxCell id="57" value="Condition Expression" style="whiteSpace=wrap;html=1;" parent="1" vertex="1">
                    <mxGeometry x="500" y="520" width="75" height="40" as="geometry"/>
                </mxCell>
                <mxCell id="58" value="" style="edgeStyle=none;orthogonalLoop=1;jettySize=auto;html=1;entryX=0.5;entryY=0;entryDx=0;entryDy=0;exitX=0;exitY=1;exitDx=0;exitDy=0;" parent="1" source="55" target="56" edge="1">
                    <mxGeometry width="80" relative="1" as="geometry">
                        <mxPoint x="577.5" y="490" as="sourcePoint"/>
                        <mxPoint x="657.5" y="490" as="targetPoint"/>
                        <Array as="points"/>
                    </mxGeometry>
                </mxCell>
                <mxCell id="59" value="" style="edgeStyle=none;orthogonalLoop=1;jettySize=auto;html=1;entryX=0.5;entryY=0;entryDx=0;entryDy=0;exitX=0.25;exitY=1;exitDx=0;exitDy=0;" parent="1" source="55" target="57" edge="1">
                    <mxGeometry width="80" relative="1" as="geometry">
                        <mxPoint x="572.5" y="510" as="sourcePoint"/>
                        <mxPoint x="555" y="530" as="targetPoint"/>
                        <Array as="points"/>
                    </mxGeometry>
                </mxCell>
                <mxCell id="69" value="Iteration Expression" style="whiteSpace=wrap;html=1;" parent="1" vertex="1">
                    <mxGeometry x="580" y="520" width="75" height="40" as="geometry"/>
                </mxCell>
                <mxCell id="71" value="" style="edgeStyle=none;orthogonalLoop=1;jettySize=auto;html=1;entryX=0.5;entryY=0;entryDx=0;entryDy=0;exitX=0.75;exitY=1;exitDx=0;exitDy=0;" parent="1" source="55" target="69" edge="1">
                    <mxGeometry width="80" relative="1" as="geometry">
                        <mxPoint x="470" y="490" as="sourcePoint"/>
                        <mxPoint x="550" y="490" as="targetPoint"/>
                        <Array as="points"/>
                    </mxGeometry>
                </mxCell>
                <mxCell id="72" value="Inside Lines" style="whiteSpace=wrap;html=1;" parent="1" vertex="1">
                    <mxGeometry x="660" y="520" width="75" height="40" as="geometry"/>
                </mxCell>
                <mxCell id="73" value="" style="edgeStyle=none;orthogonalLoop=1;jettySize=auto;html=1;exitX=1;exitY=1;exitDx=0;exitDy=0;entryX=0.603;entryY=0.075;entryDx=0;entryDy=0;entryPerimeter=0;" parent="1" source="55" target="72" edge="1">
                    <mxGeometry width="80" relative="1" as="geometry">
                        <mxPoint x="670" y="500" as="sourcePoint"/>
                        <mxPoint x="750" y="500" as="targetPoint"/>
                        <Array as="points"/>
                    </mxGeometry>
                </mxCell>
                <mxCell id="77" value="Instruction 1" style="whiteSpace=wrap;html=1;" parent="1" vertex="1">
                    <mxGeometry x="575" y="585" width="75" height="40" as="geometry"/>
                </mxCell>
                <mxCell id="78" value="......." style="whiteSpace=wrap;html=1;" parent="1" vertex="1">
                    <mxGeometry x="660" y="585" width="75" height="40" as="geometry"/>
                </mxCell>
                <mxCell id="79" value="Instruction N" style="whiteSpace=wrap;html=1;" parent="1" vertex="1">
                    <mxGeometry x="745" y="585" width="75" height="40" as="geometry"/>
                </mxCell>
                <mxCell id="80" value="" style="edgeStyle=none;orthogonalLoop=1;jettySize=auto;html=1;entryX=0.5;entryY=0;entryDx=0;entryDy=0;exitX=0.75;exitY=1;exitDx=0;exitDy=0;" parent="1" source="72" target="79" edge="1">
                    <mxGeometry width="80" relative="1" as="geometry">
                        <mxPoint x="760" y="530" as="sourcePoint"/>
                        <mxPoint x="590" y="490" as="targetPoint"/>
                        <Array as="points"/>
                    </mxGeometry>
                </mxCell>
                <mxCell id="81" value="" style="edgeStyle=none;orthogonalLoop=1;jettySize=auto;html=1;entryX=0.5;entryY=0;entryDx=0;entryDy=0;exitX=0.5;exitY=1;exitDx=0;exitDy=0;" parent="1" source="72" target="78" edge="1">
                    <mxGeometry width="80" relative="1" as="geometry">
                        <mxPoint x="510" y="490" as="sourcePoint"/>
                        <mxPoint x="590" y="490" as="targetPoint"/>
                        <Array as="points"/>
                    </mxGeometry>
                </mxCell>
                <mxCell id="82" value="" style="edgeStyle=none;orthogonalLoop=1;jettySize=auto;html=1;entryX=0.5;entryY=0;entryDx=0;entryDy=0;exitX=0;exitY=1;exitDx=0;exitDy=0;" parent="1" source="72" target="77" edge="1">
                    <mxGeometry width="80" relative="1" as="geometry">
                        <mxPoint x="510" y="490" as="sourcePoint"/>
                        <mxPoint x="590" y="490" as="targetPoint"/>
                        <Array as="points"/>
                    </mxGeometry>
                </mxCell>
                <mxCell id="83" value="for (int i=0;i&amp;lt;5;i = i+1){&lt;br&gt;a = 2+i;&lt;br&gt;}" style="text;strokeColor=none;align=left;fillColor=none;html=1;verticalAlign=middle;whiteSpace=wrap;rounded=0;" parent="1" vertex="1">
                    <mxGeometry x="527.5" y="400" width="130" height="30" as="geometry"/>
                </mxCell>
                <mxCell id="84" value="int i = 0" style="text;strokeColor=none;align=center;fillColor=none;html=1;verticalAlign=middle;whiteSpace=wrap;rounded=0;" parent="1" vertex="1">
                    <mxGeometry x="425" y="560" width="60" height="30" as="geometry"/>
                </mxCell>
                <mxCell id="85" value="i&amp;lt;5" style="text;strokeColor=none;align=center;fillColor=none;html=1;verticalAlign=middle;whiteSpace=wrap;rounded=0;" parent="1" vertex="1">
                    <mxGeometry x="507.5" y="560" width="60" height="30" as="geometry"/>
                </mxCell>
                <mxCell id="86" value="i = i+1" style="text;strokeColor=none;align=center;fillColor=none;html=1;verticalAlign=middle;whiteSpace=wrap;rounded=0;" parent="1" vertex="1">
                    <mxGeometry x="575" y="560" width="60" height="30" as="geometry"/>
                </mxCell>
                <mxCell id="89" value="a = 2+i" style="text;strokeColor=none;align=center;fillColor=none;html=1;verticalAlign=middle;whiteSpace=wrap;rounded=0;" parent="1" vertex="1">
                    <mxGeometry x="580" y="630" width="60" height="30" as="geometry"/>
                </mxCell>
                <mxCell id="90" value="If Statement" style="whiteSpace=wrap;html=1;" vertex="1" parent="1">
                    <mxGeometry x="122.5" y="760" width="120" height="60" as="geometry"/>
                </mxCell>
                <mxCell id="91" value="Condition Expression" style="whiteSpace=wrap;html=1;" vertex="1" parent="1">
                    <mxGeometry x="60" y="840" width="75" height="40" as="geometry"/>
                </mxCell>
                <mxCell id="92" value="" style="edgeStyle=none;orthogonalLoop=1;jettySize=auto;html=1;entryX=0.5;entryY=0;entryDx=0;entryDy=0;exitX=0.25;exitY=1;exitDx=0;exitDy=0;" edge="1" parent="1" source="90" target="91">
                    <mxGeometry width="80" relative="1" as="geometry">
                        <mxPoint x="173.75" y="712" as="sourcePoint"/>
                        <mxPoint x="107.5" y="732" as="targetPoint"/>
                        <Array as="points"/>
                    </mxGeometry>
                </mxCell>
                <mxCell id="93" value="Inside Lines" style="whiteSpace=wrap;html=1;" vertex="1" parent="1">
                    <mxGeometry x="145" y="840" width="75" height="40" as="geometry"/>
                </mxCell>
                <mxCell id="95" value="" style="edgeStyle=none;orthogonalLoop=1;jettySize=auto;html=1;entryX=0.5;entryY=0;entryDx=0;entryDy=0;exitX=0.5;exitY=1;exitDx=0;exitDy=0;" edge="1" parent="1" source="90" target="93">
                    <mxGeometry width="80" relative="1" as="geometry">
                        <mxPoint x="162.5" y="830" as="sourcePoint"/>
                        <mxPoint x="107.5" y="850" as="targetPoint"/>
                        <Array as="points"/>
                    </mxGeometry>
                </mxCell>
                <mxCell id="96" value="Else If Condition" style="whiteSpace=wrap;html=1;" vertex="1" parent="1">
                    <mxGeometry x="230" y="840" width="75" height="40" as="geometry"/>
                </mxCell>
                <mxCell id="97" value="" style="edgeStyle=none;orthogonalLoop=1;jettySize=auto;html=1;entryX=0.5;entryY=0;entryDx=0;entryDy=0;exitX=0.75;exitY=1;exitDx=0;exitDy=0;" edge="1" parent="1" source="90" target="96">
                    <mxGeometry width="80" relative="1" as="geometry">
                        <mxPoint x="192.5" y="830" as="sourcePoint"/>
                        <mxPoint x="192.5" y="850" as="targetPoint"/>
                        <Array as="points"/>
                    </mxGeometry>
                </mxCell>
                <mxCell id="98" value="&lt;div style=&quot;text-align: left;&quot;&gt;&lt;span style=&quot;background-color: initial;&quot;&gt;if (a&amp;lt;b){&lt;/span&gt;&lt;/div&gt;&lt;div style=&quot;text-align: left;&quot;&gt;&lt;span style=&quot;white-space: pre;&quot;&gt;&#9;&lt;/span&gt;a = b;&lt;br&gt;&lt;/div&gt;&lt;div style=&quot;text-align: left;&quot;&gt;&lt;span style=&quot;background-color: initial;&quot;&gt;}&lt;/span&gt;&lt;/div&gt;&lt;div style=&quot;text-align: left;&quot;&gt;&lt;span style=&quot;background-color: initial;&quot;&gt;else if (a&amp;gt;b){&lt;/span&gt;&lt;/div&gt;&lt;div style=&quot;text-align: left;&quot;&gt;&lt;span style=&quot;background-color: initial;&quot;&gt;&lt;span style=&quot;white-space: pre;&quot;&gt;&#9;&lt;/span&gt;a = 2;&lt;br&gt;&lt;/span&gt;&lt;/div&gt;&lt;div style=&quot;text-align: left;&quot;&gt;&lt;span style=&quot;background-color: initial;&quot;&gt;}&lt;/span&gt;&lt;/div&gt;" style="text;strokeColor=none;align=center;fillColor=none;html=1;verticalAlign=middle;whiteSpace=wrap;rounded=0;" vertex="1" parent="1">
                    <mxGeometry x="142.5" y="700" width="77.5" height="30" as="geometry"/>
                </mxCell>
                <mxCell id="99" value="a&amp;lt;b" style="text;strokeColor=none;align=center;fillColor=none;html=1;verticalAlign=middle;whiteSpace=wrap;rounded=0;" vertex="1" parent="1">
                    <mxGeometry x="67.5" y="880" width="60" height="30" as="geometry"/>
                </mxCell>
                <mxCell id="101" value="a = b;" style="text;strokeColor=none;align=center;fillColor=none;html=1;verticalAlign=middle;whiteSpace=wrap;rounded=0;" vertex="1" parent="1">
                    <mxGeometry x="152.5" y="880" width="60" height="30" as="geometry"/>
                </mxCell>
                <mxCell id="102" value="&lt;div style=&quot;text-align: left;&quot;&gt;&lt;span style=&quot;background-color: initial;&quot;&gt;if (a&amp;gt;b){&lt;/span&gt;&lt;/div&gt;&lt;div style=&quot;text-align: left;&quot;&gt;&lt;span style=&quot;background-color: initial;&quot;&gt;a = 2;&lt;/span&gt;&lt;/div&gt;&lt;div style=&quot;text-align: left;&quot;&gt;&lt;span style=&quot;background-color: initial;&quot;&gt;}&lt;/span&gt;&lt;/div&gt;" style="text;strokeColor=none;align=center;fillColor=none;html=1;verticalAlign=middle;whiteSpace=wrap;rounded=0;" vertex="1" parent="1">
                    <mxGeometry x="237.5" y="890" width="60" height="30" as="geometry"/>
                </mxCell>
            </root>
        </mxGraphModel>
    </diagram>
</mxfile>